<?xml version="1.0" encoding="UTF-8"?>
<svg fill="#F8D859" width="752pt" height="752pt" version="1.1" viewBox="0 0 752 752" xmlns="http://www.w3.org/2000/svg">
 <g>
  <path d="m356.29 162.89c-146.65 0-151.49 95.406-151.49 186.52h302.98c0-91.109-4.832-186.52-151.49-186.52z"/>
  <path d="m285.35 396.66c14.543 0 26.867-5.6719 30.77-13.434l-62.688-11.66c-0.13281 5.0117-0.17578 5.6328-0.17578 6.25-0.003906 10.422 14.359 18.844 32.094 18.844z"/>
  <path d="m504.45 411.49-13.008 13.848-89.668-13.848-45.496-10.008-45.465 10.008-97.543 14.57c2.625 25.414 3.0078 59.5 17.195 82.516 14.113 22.863 33.516 34.164 55.504 48.578 21.914 14.422 46.297 31.961 70.305 31.961 24.043 0 48.43-17.535 70.34-31.957 21.988-14.422 41.391-25.715 55.504-48.578 7.9141-12.859 10.652-29.141 11.988-45.426 3.0469 24.688 8.6016 57.98 18.336 87.5 10.461-5.2891 5.4023-29.297-0.875-57.027 8.2148 21.113 19.137 43.18 32.945 59.84 15.371-8.5234-40.062-100.29-40.062-141.98z"/>
  <path d="m427.22 396.66c17.734 0 32.098-8.4258 32.098-18.844 0-0.62109-0.042968-1.2422-0.17969-6.25l-62.688 11.66c3.9023 7.7617 16.23 13.434 30.77 13.434z"/>
 </g>
</svg>
