<?xml version="1.0" standalone="no"?>
<!DOCTYPE svg PUBLIC "-//W3C//DTD SVG 20010904//EN"
 "http://www.w3.org/TR/2001/REC-SVG-20010904/DTD/svg10.dtd">
<svg version="1.0" xmlns="http://www.w3.org/2000/svg"
 width="1280.000000pt" height="1280.000000pt" viewBox="0 0 1280.000000 1280.000000"
 preserveAspectRatio="xMidYMid meet">
<metadata>
Created by potrace 1.15, written by Peter Selinger 2001-2017
</metadata>
<g transform="translate(0.000000,1280.000000) scale(0.100000,-0.100000)"
fill="#F8D859" stroke="none">
<path d="M0 12440 l0 -360 4385 0 4385 0 0 -615 0 -615 -2362 0 -2363 0 360
-360 360 -360 2002 0 2003 0 0 -320 0 -320 -967 0 -968 0 360 -360 360 -360
607 0 608 0 0 -608 0 -607 360 -360 360 -360 0 968 0 967 320 0 320 0 0 -2003
0 -2002 360 -360 360 -360 0 2363 0 2362 615 0 615 0 0 -4385 0 -4385 360 0
360 0 0 4745 0 4745 -975 0 -975 0 0 320 0 320 975 0 975 0 0 1335 0 1335
-1335 0 -1335 0 0 -975 0 -975 -320 0 -320 0 0 975 0 975 -4745 0 -4745 0 0
-360z m12080 -975 l0 -615 -615 0 -615 0 0 615 0 615 615 0 615 0 0 -615z
m-1950 -1655 l0 -320 -320 0 -320 0 0 320 0 320 320 0 320 0 0 -320z"/>
</g>
</svg>
